<svg xmlns="http://www.w3.org/2000/svg" viewBox="0 0 256 256" role="img" aria-label="CorePlanX">
  <defs>
    <linearGradient id="g" x1="0" y1="0" x2="1" y2="1">
      <stop offset="0" stop-color="#ff7a18"/>
      <stop offset="1" stop-color="#af002d"/>
    </linearGradient>
  </defs>

  <!-- rounded tile -->
  <rect x="20" y="20" width="216" height="216" rx="48" fill="#0b0f1a"/>

  <!-- rail (two lines) -->
  <path d="M64 178 H192" stroke="#9aa4b2" stroke-width="10" stroke-linecap="round" opacity="0.55"/>
  <path d="M64 206 H192" stroke="#9aa4b2" stroke-width="10" stroke-linecap="round" opacity="0.35"/>

  <!-- sleepers -->
  <g opacity="0.45" stroke="#9aa4b2" stroke-width="8" stroke-linecap="round">
    <path d="M76 170 v44"/>
    <path d="M104 170 v44"/>
    <path d="M132 170 v44"/>
    <path d="M160 170 v44"/>
    <path d="M188 170 v44"/>
  </g>

  <!-- timeline bars (Gantt hint) – darkened -->
  <rect x="64" y="72" width="92" height="18" rx="9" fill="#1f2937" opacity="0.45"/>
  <rect x="64" y="104" width="128" height="18" rx="9" fill="#1f2937" opacity="0.35"/>
  <rect x="64" y="136" width="70" height="18" rx="9" fill="#1f2937" opacity="0.3"/>

  <!-- CPX monogram (unchanged geometry) -->
  <g fill="none" stroke="url(#g)" stroke-width="16" stroke-linecap="round" stroke-linejoin="round">
    <!-- C -->
    <path d="M96 78c-18 0-32 14-32 32s14 32 32 32"/>
    <!-- P -->
    <path d="M130 142V78h22c14 0 26 12 26 26s-12 26-26 26h-22"/>
    <!-- X -->
    <path d="M176 138l18 18"/>
    <path d="M194 138l-18 18"/>
  </g>
</svg>
